<?xml version="1.0" encoding="UTF-8"?>
<svg xmlns="http://www.w3.org/2000/svg" viewBox="0 0 420 36" width="420" height="36">
  <defs>
    <linearGradient id="gold" x1="0%" y1="0%" x2="100%" y2="0%">
      <stop offset="0%" stop-color="#A07E34"/>
      <stop offset="35%" stop-color="#C9A961"/>
      <stop offset="70%" stop-color="#E6D18E"/>
      <stop offset="100%" stop-color="#C19A4E"/>
    </linearGradient>
    <filter id="softGlow" x="-10%" y="-50%" width="120%" height="200%">
      <feGaussianBlur in="SourceGraphic" stdDeviation="0.6" result="blur"/>
      <feMerge>
        <feMergeNode in="blur" />
        <feMergeNode in="SourceGraphic" />
      </feMerge>
    </filter>
  </defs>

  <!-- Left ornament: spiral and key-like motif -->
  <g transform="translate(22,18)">
    <path d="M-22,3 C -10,-6 6,-6 18,3" fill="none" stroke="url(#gold)" stroke-width="3" stroke-linecap="round"/>
    <!-- spiral approximation -->
    <path d="M24,0
             c 0,8 -12,12 -18,7
             c -6,-5 -4,-14 3,-17
             c 7,-4 17,3 15,10
             c -2,7 -10,6 -12,2
             c -2,-4 2,-7 5,-5"
          fill="none" stroke="url(#gold)" stroke-width="3" stroke-linecap="round" stroke-linejoin="round"/>
  </g>

  <!-- Flowing flourish line -->
  <path d="M 100 18
           C 150 6, 200 30, 250 18
           S 335 6, 380 18
           S 420 12, 420 18"
        fill="none" stroke="url(#gold)" stroke-width="3" stroke-linecap="round" stroke-linejoin="round" filter="url(#softGlow)"/>
  <!-- Inner highlight line for a dimensional look -->
  <path d="M 100 18
           C 150 10, 200 26, 250 18
           S 335 10, 380 18
           S 420 14, 420 18"
        fill="none" stroke="#F4E6B3" stroke-opacity="0.6" stroke-width="1.2" stroke-linecap="round" stroke-linejoin="round"/>
</svg>
